PathFileType	4	(X/Y/Z)	Walk10.trc
DataRate	CameraRate	NumFrames	NumMarkers	Units	OrigDataRate	OrigDataStartFrame	OrigNumFrames
200.000000	200.000000	6	56	mm	200.000000	483	519
Frame#	Times		RBHD		C7		RASI		RACR1		RUA1		RElbow		RFA1		LFA1		RTH3		RTH2		RTB1		RTB3		RMT1		LTH2		RMT5		RLFC		LElbowM		RTH1		RWRU		RTB2		LElbow		RTB4		RMMAL		LACR1		LTH3		LTH4		LWRU		CLAV		LASI		LTB1		LPSI		RPSI		T10		LLFC		RTH4		LBHD		RCAR		LTB3		LTH1		LTB4		RToe		LWRR		LMT1		RBack		LMMAL		LCAL		LFHD		LTB2		LLMAL		RLMAL		LCAR		LToe		LMT5		RElbowM		LUA1		RCAL
			X1	Y1	Z1	X2	Y2	Z2	X3	Y3	Z3	X4	Y4	Z4	X5	Y5	Z5	X6	Y6	Z6	X7	Y7	Z7	X8	Y8	Z8	X9	Y9	Z9	X10	Y10	Z10	X11	Y11	Z11	X12	Y12	Z12	X13	Y13	Z13	X14	Y14	Z14	X15	Y15	Z15	X16	Y16	Z16	X17	Y17	Z17	X18	Y18	Z18	X19	Y19	Z19	X20	Y20	Z20	X21	Y21	Z21	X22	Y22	Z22	X23	Y23	Z23	X24	Y24	Z24	X25	Y25	Z25	X26	Y26	Z26	X27	Y27	Z27	X28	Y28	Z28	X29	Y29	Z29	X30	Y30	Z30	X31	Y31	Z31	X32	Y32	Z32	X33	Y33	Z33	X34	Y34	Z34	X35	Y35	Z35	X36	Y36	Z36	X37	Y37	Z37	X38	Y38	Z38	X39	Y39	Z39	X40	Y40	Z40	X41	Y41	Z41	X42	Y42	Z42	X43	Y43	Z43	X44	Y44	Z44	X45	Y45	Z45	X46	Y46	Z46	X47	Y47	Z47	X48	Y48	Z48	X49	Y49	Z49	X50	Y50	Z50	X51	Y51	Z51	X52	Y52	Z52	X53	Y53	Z53	X54	Y54	Z54	X55	Y55	Z55	X56	Y56	Z56

483	2.415	1182.5	1579.7	432.05	1160.6	1452.2	357.54	1267.3	962.53	482.39	1237.3	1401.3	496.22	1225.4	1212.5	584.66	1202.5	1083.2	622.45	1285.2	958.16	641.44	1171.4	993.29	41.059	1222.4	565.21	509.75	1284.9	664.26	489.25	1234.1	364.85	408.49	1198.9	178.04	407.96	1274.5	34.277	366.18	1353.2	701.74	164.4	1252.1	33.641	456.2	1221	459.92	493.4	1065.8	1128.3	150.61	1220.3	751.08	536.43	1315.3	831.08	633.74	1217.4	270.43	482.16	1083.7	1128.6	70.934	1219.1	273.14	410.26	1149.8	93.796	366.37	1183.6	1444.6	178.08	1328	588.48	152.03	1285.9	668.06	144.66	1155.2	875.17	42.862	1292	1374.1	329.72	1243	955.64	182.31	1373	383.35	223.65	1076.9	968.51	287.18	1080	976.33	391.81	1068.8	1141.4	341.48	1360.6	486.13	165.61	1222.5	653.61	522.27	1176.7	1591.8	294.5	1373.9	797.35	643.75	1255.1	241.38	244.79	1243	756.06	146.77	1311.8	313.26	235.22	1327.5	36.609	383.83	1224.6	890.07	84.396	1252.4	68.5	289.21	1098.1	1353.1	457.56	1175.1	172.77	311.63	1072.2	156.03	285.24	1334.7	1616.7	336.61	1280.4	330.71	172.9	1128.6	175.51	231.4	1133.8	81.033	457.7	1228.7	836.72	37.724	1290.7	63.87	264.78	1222	73.874	212.32	1176.5	1049.4	533.93	1126.1	1253.6	84.33	1076.9	31.534	421.1
484	2.42	1188.2	1580	431.03	1166.6	1452	357.15	1274.2	962.11	481.51	1243.6	1401.5	495.39	1232.2	1213.3	584.9	1211.2	1083.7	623.13	1296.8	960.96	642	1173.6	992.78	40.452	1225.4	565	509.79	1289.2	663.91	488.61	1235	364.57	408.64	1199.4	177.89	407.94	1274.6	34.205	366.05	1360.3	703.26	163.56	1252.3	33.571	456.42	1222.6	459.63	493.52	1069.5	1128.2	151.04	1224.8	750.9	536.12	1329.7	834.93	634	1218.5	270.23	482.11	1086.9	1128.5	71.177	1219.9	273.01	410.2	1150	93.977	366.51	1189	1444.3	177.46	1336	589.96	150.97	1293.4	669.15	143.57	1156.9	874.91	43.137	1297.6	1374	329.32	1249.1	955.59	181.93	1384.5	385.23	222.48	1082.7	968.42	286.79	1085.5	976.38	391.46	1074.8	1141.3	341.15	1369.6	487.53	164.69	1226.1	653.27	522.15	1182.4	1591.5	293.25	1389.6	802.03	643.05	1270.9	239.72	243.58	1249.7	756.8	145.83	1325.4	313.33	234.01	1327.6	35.457	383.6	1224.9	888.75	84.064	1273.5	66.963	286.95	1104.3	1353.2	457.17	1192.8	168.58	310.43	1090.7	148.65	284.56	1338.4	1615.9	336.89	1293.5	329.84	171.66	1145.9	170.22	230.45	1134	81.012	457.73	1230.8	836.24	36.201	1311.8	63.641	261.87	1242.4	71.665	210.33	1186.3	1049.6	534.58	1129.8	1253.4	84.276	1077	31.618	421.19
485	2.425	1194.1	1580.1	429.84	1172.6	1451.8	356.81	1280.6	961.59	480.74	1249.8	1401.8	494.74	1239	1214.1	585.09	1219.9	1084.2	624.1	1307.3	963.05	642.74	1175.7	992.13	39.962	1228.1	564.67	509.81	1293	663.41	488.37	1236.1	364.34	408.67	1199.9	177.74	407.92	1274.7	34.186	366	1367.5	704.89	162.54	1252.4	33.431	456.47	1224.6	459.5	493.47	1073.2	1128.1	151.46	1229.1	750.79	536.04	1344.5	838.19	633.88	1219.5	269.95	482.11	1090.5	1128.1	71.509	1220.6	272.86	410.2	1149.7	93.863	366.79	1194.4	1443.8	176.87	1344	591.34	149.97	1300.5	670.03	142.6	1159.1	874.4	44.26	1303.2	1373.8	328.85	1255.2	955.36	181.66	1395.7	386.9	221.28	1088.6	968.49	286.43	1091.3	976.17	390.93	1080.8	1141.4	340.77	1378.3	488.85	163.82	1229.7	652.78	522	1188.3	1591	292.09	1405	806.96	642.37	1286.6	237.92	242.32	1256.3	757.41	144.89	1339.3	313.39	232.66	1327.7	34.763	383.96	1224.9	887.27	83.816	1295	65.707	284.57	1110.4	1353.2	457.11	1210.7	164.29	309.23	1109.3	141.22	283.53	1341.9	1615	337.18	1306.5	328.92	170.48	1163.8	164.8	229.49	1134.2	81.011	457.76	1232.7	835.62	34.814	1333.1	63.375	258.5	1263.2	69.623	208.14	1196.2	1049.7	535.33	1133.5	1253	84.239	1077	31.697	421.23
486	2.43	1200.1	1580.1	428.32	1178.6	1451.7	356.13	1286.3	961	480.31	1256	1402.2	494.08	1245.8	1214.8	585.28	1228.7	1084.9	624.96	1319.5	965.38	642.61	1177.8	991.57	39.44	1230.8	564.49	509.88	1296.6	662.86	488.28	1237.4	364.11	408.63	1200.3	177.59	407.93	1274.8	34.18	365.96	1374.8	706.37	161.63	1252.5	33.244	456.4	1226.3	459.25	493.52	1077.1	1127.8	151.88	1233.4	750.58	535.88	1359.3	841.47	633.22	1220.5	269.68	482.21	1093.8	1127.7	71.771	1221.4	272.57	410.27	1149.5	93.745	366.99	1199.9	1443.2	176.26	1351.9	592.54	149.08	1307.7	670.92	141.6	1161.3	873.35	45.18	1309	1373.6	328.25	1261.1	955.13	181.31	1406.6	388.44	220.2	1094.4	968.52	285.87	1097.1	976.18	390.5	1086.8	1141.2	340.57	1386.9	490.07	163	1233.4	652.32	521.8	1194.3	1590.5	290.77	1420.6	811.74	641.59	1302.2	236.19	241.02	1262.8	757.89	144.03	1352.8	313.28	231.39	1328	33.901	383.75	1224.7	885.66	83.636	1316.3	64.455	282.18	1116.4	1353.2	457.03	1229.1	159.99	307.77	1128.3	134.04	282.42	1345.4	1614.1	337.47	1319.3	327.75	169.23	1181.9	159.43	228.29	1134.3	81.037	457.79	1234.7	834.79	33.553	1354.2	63.175	255.39	1283.8	67.63	205.98	1206	1049.7	535.96	1137.3	1252.7	84.333	1077	31.842	421.26
487	2.435	1206	1580.1	426.9	1184.6	1451.4	355.47	1291.2	960.32	480.28	1262.1	1402.3	493.46	1252.6	1215.4	585.4	1237.5	1085.5	625.75	1331.5	967.77	642.44	1180	990.89	39.001	1233.9	564.13	509.85	1300.2	662.31	488.25	1238.9	363.76	408.63	1200.8	177.39	408.03	1274.9	34.113	365.93	1381.4	707.52	161.08	1252.6	33.079	456.26	1228.3	458.96	493.53	1081.1	1127.5	152.34	1238.1	750.37	535.57	1373.7	844.76	632.29	1221.6	269.41	482.27	1097.3	1127.7	72.85	1222.3	272.19	410.39	1149.6	93.734	367.04	1205.2	1442.5	175.75	1359.6	593.49	148.3	1314.9	671.76	140.62	1163.2	872.26	45.648	1315.1	1373.3	327.59	1267	954.71	181.01	1417.3	389.86	219.08	1100.3	968.35	285.04	1102.7	975.86	389.74	1092.6	1140.9	340.34	1395.3	491.08	162.19	1237.2	651.92	521.6	1199.9	1589.8	289.47	1435.7	816.71	640.87	1317.9	234.46	239.59	1269.1	758.28	143.21	1366	313.01	230.21	1328.5	33.735	383.42	1224.3	883.93	83.506	1337.8	63.188	279.84	1122.8	1353	456.62	1247.6	155.65	306.28	1146.7	127.55	280.55	1348.7	1613.1	337.77	1332.1	326.6	167.96	1200.3	153.99	227.02	1134.5	80.967	457.82	1236.2	833.84	32.46	1375.5	63.234	252.04	1304.9	65.747	203.5	1215.8	1049.5	536.45	1141.2	1252.3	84.299	1077.1	31.971	421.29
488	2.44	1211.8	1579.9	425.44	1190.7	1451	354.84	1295.5	959.58	480.59	1268.1	1402.2	492.69	1259.6	1215.9	585.57	1246.1	1086.2	626.53	1342.8	970.18	642.63	1182.4	990.1	38.441	1237	563.69	509.71	1303.6	661.2	487.41	1240.2	363.32	408.62	1201.3	177.16	408.04	1275	34.05	365.87	1387.6	708.52	160.63	1252.6	32.924	456.19	1230.4	458.72	493.55	1085.3	1127.2	152.76	1242.5	750.21	535.32	1388	848.02	631.39	1222.7	269.09	482.25	1101.3	1127.2	74.035	1223.3	271.88	410.49	1149.9	93.761	367.03	1210.6	1441.7	175.18	1367.1	594.41	147.51	1322.1	672.35	139.6	1164.1	871.5	45.151	1321.3	1372.9	326.78	1272.9	954.36	180.64	1428	391.18	217.93	1106.3	967.9	284.77	1108.2	975.67	389.32	1098.4	1140.6	339.8	1403.3	491.95	161.56	1240.9	650.96	520.67	1205.8	1589.1	288.01	1450.9	821.93	640.09	1333.6	232.6	238.15	1275.6	758.57	142.24	1379.2	312.75	228.75	1328.6	32.94	383.14	1223.9	882.1	83.406	1359.5	62.225	277.23	1129	1352.9	456.36	1266.3	151.31	304.64	1166.5	119.89	279.18	1352	1612.1	338.06	1344.8	325.5	166.74	1218.5	148.53	225.76	1134.7	80.983	457.83	1237.6	832.8	31.246	1397	63.293	249.14	1325.6	64.069	200.94	1225.6	1049.7	537.11	1145.3	1251.7	84.282	1077.1	32.087	421.34
